<svg xmlns="http://www.w3.org/2000/svg" viewBox="0 0 24 24" style=""><path fill="#0AEF12" d="M14.72,8.79l-4.29,4.3L8.78,11.44a1,1,0,1,0-1.41,1.41l2.35,2.36a1,1,0,0,0,.71.29,1,1,0,0,0,.7-.29l5-5a1,1,0,0,0,0-1.42A1,1,0,0,0,14.72,8.79ZM12,2A10,10,0,1,0,22,12,10,10,0,0,0,12,2Zm0,18a8,8,0,1,1,8-8A8,8,0,0,1,12,20Z" class="KfjknqSw_0"></path><style data-made-with="vivus-instant">.KfjknqSw_0{stroke-dasharray:140 142;stroke-dashoffset:141;animation:KfjknqSw_draw_0 7200ms linear 0ms infinite,KfjknqSw_fade 7200ms linear 0ms infinite;}@keyframes KfjknqSw_draw{100%{stroke-dashoffset:0;}}@keyframes KfjknqSw_fade{0%{stroke-opacity:1;}94.44444444444444%{stroke-opacity:1;}100%{stroke-opacity:0;}}@keyframes KfjknqSw_draw_0{11.11111111111111%{stroke-dashoffset: 141}38.88888888888889%{ stroke-dashoffset: 0;}100%{ stroke-dashoffset: 0;}}</style></svg>